<?xml version="1.0" encoding="UTF-8"?><svg id="_Шар_1" xmlns="http://www.w3.org/2000/svg" width="1024" height="1024" viewBox="0 0 1024 1024"><defs><style>.cls-1{fill:#000;}.cls-1,.cls-2{stroke-width:0px;}.cls-2{fill:#1d1d1b;}</style></defs><path class="cls-1" d="M318.6,306.21c-2.3,1.05-5.02.02-6.58-1.84-1.7-1.67-3.33-3.43-4.86-5.25-3.08-3.65-5.77-7.62-8.03-11.83-4.49-8.43-7.04-17.91-7.13-27.48-.01-9.55.98-19.03,1.69-28.54,1.4-19.07,5.94-37.72,11.84-55.85,8.16-27.41,20.9-54.01,41.44-74.33,13.41-13.73,29.8-24.13,46.85-32.72,17.05-8.74,35.5-14.36,54.12-18.57,37.29-9.22,77.82-5.91,113.21,7.8,11.04,4.67,21.42,10.81,31.49,17.28,10.12,6.59,19.82,13.62,29.28,21.24,2.35,2.08,4.37,4.46,6.07,7.07,1.68,2.71,3.12,5.35,4.06,8.43.43,1.56.71,3.33.16,5.16-1.85,5.29-8.76,5.63-13.38,4.54-6.17-1.67-10.59-6.33-15.46-9.95-4.72-3.53-10.1-6.2-15.34-8.93-4.81-2.48-11.19-5.79-16.11-7.74-8.26-3.38-16.96-5.6-25.64-7.7-41.35-10.03-92.26-8.62-131.97,7.25-34.09,13.87-61.85,36.56-75.69,71.42-8.54,22.29-13.62,46.05-15.86,69.84-.54,5.97-.87,11.96-.96,17.96-.28,12.01-1.07,23.99-1.09,36-.02,2.99.18,5.98.63,8.94l.32,2.23c.08.75.17,1.52.01,2.3-.39,1.55-1.72,2.6-3.07,3.3h0ZM318.48,305.93c3.65-1.92,3.08-4.03,2.5-7.5-.46-2.97-.69-5.99-.69-9-.06-12.01.65-24.01.84-36.01.24-18.04,2.15-36.06,5.95-53.71,4.99-23.49,12.32-47.25,27.73-66.2,14.98-19.23,36.14-32.59,58.38-42.01,22.41-9.31,46.8-12.69,70.87-13.75,30.15-.86,60.7,3.5,88.94,14.29,8.06,3.37,16.61,8.04,24.29,12.2,2.64,1.49,5.26,3.09,7.72,4.97,4.67,3.46,8.89,8.02,14.49,9.57,2.56.65,5.58.63,7.97-.39,1.15-.52,1.99-1.31,2.3-2.38.82-3.92-1.98-8.13-3.88-11.47-1.56-2.42-3.45-4.67-5.59-6.58-9.21-7.49-18.95-14.6-28.93-21.14-10-6.47-20.3-12.63-31.28-17.28-35.4-13.7-74.77-16.92-111.75-7.99-18.55,4.13-36.83,9.63-53.81,18.25-16.96,8.49-33.23,18.69-46.65,32.21-20.55,20.07-33.37,46.42-41.67,73.63-6.03,18.08-10.64,36.62-12.14,55.66-.76,9.48-1.81,18.99-1.78,28.5.09,9.52,2.63,18.95,7.1,27.34,3.35,6.3,7.74,12.02,12.83,17.01,1.5,1.77,4.03,2.79,6.24,1.78h0Z"/><path class="cls-1" d="M629.6,120.61c-2.53,2.83.22,8.75,1.09,12,2.67,8.04,5.67,15.97,9.1,23.72,1.85,3.81,3.27,7.89,4.08,12.06,3.48,16.61,6.71,33.24,10.37,49.79,3.94,16.32,6.51,33.55,9.04,50.08,1.34,8.36,2.31,16.91,2.76,25.35.44,3.93.33,8.21,1.84,11.86.01,0,.04.03-.05-.04-.07-.04-.28-.11-.42-.06-.26.09-.13.07-.05-.06.76-1.19,1.21-2.72,1.88-4.09,2.7-5.95,7.63-10.69,12.14-15.09,4.26-4.17,8.28-9.27,8.27-15.48-.11-6.21-1.91-12.36-2.92-18.54-1.55-8.33-3.04-16.7-4.48-25.04-1.41-8.29-3.41-16.52-5.28-24.79-1.69-8.33-4.3-16.19-7.41-24.08-2.93-7.71-10.66-28.17-13.49-35.67-2.98-7.78-7.43-15.48-14.77-19.83-3.17-1.64-8.45-4.42-11.72-2.09h0ZM629.4,120.39c1.74-1.48,4.22-1.04,6.24-.54,6.24,1.68,11.55,5.87,15.32,11.04,4.51,5.86,8.18,16.11,11.11,22.93,0,0,9.82,23.47,9.82,23.47,3.28,7.82,6.18,16.02,8.02,24.31,1.91,8.26,3.95,16.51,5.42,24.93,1.44,8.37,2.83,16.71,4.33,25.05.97,6.35,2.74,12.59,2.75,19.13-.25,14.04-15.9,19.87-21.06,31.51-1.01,1.74-1.87,6.45-4.66,5.19-1.39-1-1.47-2.63-1.82-4.05-.57-3.19-.78-6.41-1-9.61-.38-8.51-1.25-16.81-2.52-25.21-2.37-16.5-4.8-33.76-8.58-50.06-3.38-16.62-6.33-33.33-9.52-49.96-.76-4.19-2.08-8.15-3.88-12.01-3.29-7.82-6.28-15.76-8.97-23.81-.95-3.49-3.69-9.3-1.01-12.31h0Z"/><path class="cls-1" d="M293.39,279.6c-12.05-11.89-30.02-12.24-40.88,1.4-7.16,8.44-9.28,17.96-9.13,28.84-.1,5.2.34,10.37,1.34,15.46,5.05,25.63,20.65,47.93,33.16,70.46,6.85,11.02,15.08,21.29,23.35,31.31,1.39,1.54,3.52,4.43,5.1,5.73,3.29,2.83,7.8,4.25,12.11,3.86,5.78-.5,10.71-4.57,13.93-9.24.09-.17.36,0,.26.15-3.11,5.47-8.53,10.17-15.04,10.67-5.85.41-11.85-2.15-15.54-6.69,0,0-2.63-2.94-2.63-2.94-8.69-9.94-17.21-19.99-24.22-31.25-12.45-22.85-27.6-45.73-32.41-71.71-.94-5.22-1.32-10.56-1.15-15.85.13-5.24.46-10.63,2.08-15.76,1.55-5.13,4.43-9.74,7.86-13.82,6.83-8.38,18.23-12.57,28.68-9.1,5.06,1.59,9.64,4.5,13.34,8.26.14.13-.09.35-.22.21h0Z"/><path class="cls-1" d="M302.4,317.61c-.61-.56-20.66-18.15-20.51-18-4.1-3.12-9.22-6.27-13.56-9.11-3.16-2.05-6.99-4.89-10.54-2.39-3.22,2.31-4.48,6.38-4.27,10.31.97,14.33,3.55,28.86,9.1,42.09,1.66,3.74,3.59,7.31,6.09,10.45,2.56,3.21,5.48,6.42,7.75,9.92,4.6,7.1,8.09,14.74,11.41,22.45,3.48,8.67,5.99,14.14,15.48,17.13,3.87,1.38,7.98,1.98,12.13,1.88.08,0,.15.06.15.15,0,.08-.06.14-.13.15-4.15.57-8.45.21-12.54-.87-4.08-1.07-8.16-2.97-11.18-6.27-2.92-3.23-4.48-7.28-6.33-11.09-1.76-3.76-3.55-7.49-5.47-11.15-3.66-7.51-8.29-14.12-13.63-20.5-7.6-10.55-10.52-23.14-12.72-35.57-.61-4.16-1.13-8.26-1.59-12.44-.46-5.22-1.18-11.24,2.39-15.65,3.05-4.25,7.96-4.44,12.02-1.48,0,0,2.6,1.74,2.6,1.74l5.17,3.52c3.4,2.41,6.99,4.68,10.01,7.58,0,0,18.35,16.92,18.35,16.92.14.13-.05.36-.2.23h0Z"/><path class="cls-1" d="M281.39,326.39c8.68-9.12,18.54-2.29,23.44,6.86,2.8,5.06,5.72,11.88,1.83,17.22-1.27,1.75-2.98,2.92-4.18,4.13-1.19,1.14-1.69,2.47-1.53,4.03.1,1.01.4,1.83,1.21,2.22,1.07.39,2.26.22,3.59.3,2.01.05,4.18.52,6.02,1.3,7.14,2.53,10.94,12.38,3.81,17.16-.14.1-.31-.11-.19-.23,5.03-5.03,1.53-12.43-4.62-14.28-2.73-1.03-5.16-.77-8.09-.94-3.46-.16-5.27-3.94-4.59-7.05.38-3.81,4.67-5.66,6.65-8.09,1.04-1.28,1.55-2.89,1.62-4.61-.03-7.48-7.25-20.54-15.36-21.46-3.52-.41-6.89,1.23-9.4,3.65-.13.14-.35-.08-.21-.21h0Z"/><path class="cls-1" d="M280.62,352.41c4.58,5.09,8.6,10.8,11.62,16.99,2.01,3.88,3.18,8.52,6.22,11.6,4.64,4.5,11.78,4.99,18,4.37.16-.03.24.22.09.29-6.27,3.15-15.44,3.05-20.3-2.68-3.09-3.82-3.93-8.48-5.78-12.77-2.59-6.27-6.05-12.11-10.07-17.6-.11-.14.11-.33.23-.19h0Z"/><path class="cls-1" d="M470.43,316.57c-5.93-5.79-12.12-11.3-18.55-16.51-6.45-4.92-12.75-10.83-20.87-12.68-5.99-1.45-12.24-.9-18.19.53-10.03,2.11-19.3,7.21-26.68,14.28,0,0,.09-1.28.09-1.28,7.12,8.57,17.16,15.05,28.11,17.25,5.57.82,11.34.75,17,.76,22.77-.83,22.81-.66.04,1.22-12.83.75-22.29.59-33.59-6.47-4.98-3.06-9.39-7.02-13.01-11.59-.31-.38-.27-.95.09-1.28,7.73-7.12,17.34-12.22,27.66-14.25,6.12-1.38,12.6-1.85,18.75-.26,8.24,1.96,14.59,8.11,21.04,13.24,6.35,5.34,12.44,10.98,18.27,16.89.09.09-.05.23-.14.14h0Z"/><path class="cls-1" d="M459.64,308.55c-.63,3.12-1.32,6.22-2.09,9.3,0,0-1.05-1.45-1.05-1.45,3.01-.22,6.01-.82,9-.03,1,.23,2,.5,3,.98.08.04.12.14.08.22-3.76,1.99-8.02,1.45-12.08,1.03-.76.04-1.36-.74-1.05-1.45.61-1.46,1.25-2.92,1.9-4.37.67-1.44,1.31-2.9,2.01-4.33.07-.15.32-.07.28.09h0Z"/><path class="cls-1" d="M443.65,303.5c-.64,15.49-20.52,21.53-31.85,12.46-11.27-8.74-6.89-24.63,6.04-28.85,11.45-4.15,25.88,3.61,25.81,16.39h0ZM443.35,303.5c-.57-14.18-20.25-18.47-30.01-10.54-7.36,5.42-7.47,15.73-.32,21.48,9.92,8.66,30.16,3.76,30.33-10.94h0Z"/><path class="cls-1" d="M597.49,305c-.6,15.01-19.92,20.89-30.88,12.09-10.95-8.47-6.7-23.92,5.86-28.02,11.08-4.05,25.13,3.56,25.02,15.93h0ZM597.19,305c-.56-13.71-19.6-17.82-29.04-10.18-7.11,5.19-7.22,15.24-.32,20.75,9.55,8.4,29.23,3.63,29.36-10.58h0Z"/><path class="cls-1" d="M533.44,314.42c5.46-3.85,13-9.15,18.29-13.03,2.73-1.96,6.24-4.96,9.17-6.56,9.83-5.72,22.01-7.95,32.87-3.77,7.11,2.71,13.76,6.6,19.35,11.78.32.3.38.78.15,1.14-2.92,4.92-7.01,9.2-11.92,12.22-9.85,6.24-22.01,5.76-33.14,4.92-22.04-1.83-22.17-2.02.05-1.25,5.57.05,11.19.27,16.64-.29,10.83-1.2,21.12-7.1,26.81-16.55,0,0,.15,1.14.15,1.14-5.29-5.12-11.77-9.05-18.59-11.76-10.46-4.22-22.27-2.16-31.95,3.21-2.87,1.48-6.53,4.45-9.22,6.31-3.05,2.18-6.17,4.26-9.26,6.36l-9.3,6.3c-.1.07-.22-.09-.11-.16h0Z"/><path class="cls-1" d="M544.65,309.48c.69,2.62,1.31,5.25,1.88,7.89.11.52-.22,1.03-.73,1.14-4.22.08-8.54.5-12.31-1.86-.11-.07-.1-.25.02-.3,3.97-1.67,8.05-.61,12.07.11,0,0-1.12,1.16-1.12,1.16-.1-2.7-.14-5.4-.12-8.11,0-.17.26-.2.3-.04h0Z"/><path class="cls-1" d="M526.38,308.41c8.02-11.55,18.29-21.51,29.76-29.66,11.85-8.31,28.09-9.42,41.34-3.87,8.89,3.72,16.49,10.36,21.14,18.54.09.15-.14.31-.25.17-5.9-7.07-13.41-12.72-22-15.92-12.62-4.81-27.62-4.99-39.16,2.71-3.87,2.49-7.55,5.43-11.16,8.28-7.24,5.8-13.76,12.53-19.43,19.93-.1.15-.36-.02-.24-.18h0Z"/><path class="cls-1" d="M474.38,311.59c-9.02-10.62-18.89-20.69-29.47-29.7-10.68-8.55-25.59-10.84-38.58-7-8.84,2.32-16.52,8.15-22.93,14.71,4.49-8.13,12.92-14.55,22.04-17.58,13.74-4.53,29.71-.85,40.7,8.36,10.47,9.44,19.83,19.94,28.47,31.02.12.14-.11.34-.23.19h0Z"/><path class="cls-1" d="M456.4,247.61c-5.73-5.51-13.49-9.61-21.6-9.1-3.98.48-8.18,1.35-12.24.6-4.1-.45-8.04-2.29-11.54-4.34-3.53-1.97-7.3-3.05-11.28-3.75-9.28-1.86-14.81-1.39-20.56,6.61-3.78,4.54-8.27,9.27-12.42,13.52-.72.7-1.69,1.84-2,2.25.07-.22-.06-.52-.2-.71-.24-.26-.44-.3-.5-.31,2.03-.54,4.21-1.74,6.37-2.63,9.89-4.57,19.79-6.05,30.52-3.97,12.1,2.17,24,5.13,35.43,9.65,3.78,1.53,7.54,3.12,11.18,4.94.07.04.1.13.07.2-7.74-2.41-15.04-5.21-23.38-7.15-7.83-1.93-15.83-3.43-23.77-4.67-3.96-.61-7.91-.98-11.81-.73-8.07.36-15.42,3.69-22.88,6.66-.73.21-1.17.41-2.1.33-.3-.05-.77-.15-1.16-.63-.33-.37-.45-.96-.36-1.42.5-1.69,1.81-2.49,2.78-3.6,4.24-4.11,8.74-8.71,12.58-13.15,1.35-1.51,2.6-3.1,4.24-4.57,3.3-2.85,7.99-3.68,12.19-3.3,4.17.45,8.12,1.28,12.11,2.55,5.81,1.91,10.45,6.35,16.67,7.04,6.03,1.3,12.16-1.45,18.16.28,6.02,1.38,11.41,4.84,15.7,9.18.14.13-.07.35-.21.21h0Z"/><path class="cls-1" d="M550.52,236.35c10.17,1.34,20.52,1.46,30.61-.4,10.09-2.24,21.22-2.35,30.76,2.13,3.18,1.57,6.07,3.71,8.54,6.26,2.47,2.55,4.53,5.48,6.13,8.63.43.79-.23,1.8-1.12,1.73-3.51-.18-12.13-.64-15.51-.83-5.1-.35-10.35-1.09-15.37-1.6-6.85-.81-13.25.37-20.03,1.74-6.85,1.14-13.8,1.55-20.73,1.41-3.46-.12-6.9-.34-10.32-.76-.08-.01-.14-.09-.13-.17,0-.08.07-.13.15-.13,3.44-.03,6.87-.07,10.28-.31,3.42-.18,6.82-.48,10.2-.94,6.96-.76,13.28-2.66,20.26-3.82,3.55-.4,7.07-.41,10.6-.12,5.23.57,10.18,1.37,15.35,1.89,3.32.28,11.93.97,15.35,1.25,0,0-1.12,1.73-1.12,1.73-8.16-17.18-25.93-20.17-43.09-16.9-10.22,1.58-20.69,1.16-30.86-.49-.18-.02-.15-.33.04-.3h0Z"/><path class="cls-1" d="M376.49,210.35c18.23-2.45,39.8-1.33,53.1,13.03.11.12-.04.32-.18.24-12.28-6.4-24.92-12.25-38.96-12.8-4.62-.36-9.28-.35-13.94-.17-.18.01-.22-.28-.03-.3h0Z"/><path class="cls-1" d="M597.48,209.65c-6.83-.6-13.76-.2-20.27,1.7-3.24.91-6.44,2.24-9.72,3.34-3.26,1.14-6.56,2.16-9.88,3.12-2.98.85-7.02,2.24-10.06,2.83-10.3,2.01-21.1.81-31.08-1.98-.16-.04-.13-.31.05-.3,13.66.67,27.28,1.02,40.45-2.86,6.76-1.51,13.13-3.81,19.86-5.59,6.82-1.56,13.88-1.63,20.68-.54.18.02.15.32-.04.3h0Z"/><path class="cls-1" d="M394.49,262.65c-3.95.27-7.81,1.39-11.23,3.3-1.69.94-3.06,2.29-4.65,3.32-1.59,1.06-3.13,2.2-4.99,3.32-.08.05-.18.02-.22-.06,1.47-6.64,8.85-9.48,14.93-10.3,2.07-.21,4.16-.21,6.18.12.17.03.16.29-.01.3h0Z"/><path class="cls-1" d="M345.64,190.44c8.69,17.65,12.34,42.07,3.01,60.11-.07.14-.32.07-.29-.09,2.36-15.03,4.66-30.21,1.33-45.25-.98-4.99-2.47-9.88-4.33-14.65-.07-.16.2-.3.27-.12h0Z"/><path class="cls-1" d="M556.43,187.37c12.25-7.94,31.12-10.8,43.14-1,.12.1.02.31-.14.27-10.66-2.75-21.5-5.5-32.41-2.73-3.59.81-7.1,2.09-10.44,3.73-.15.08-.31-.16-.15-.26h0Z"/><path class="cls-1" d="M627.65,200.52c-.71,10.1,1.13,20.3,6.17,29.11,1.2,2.22,2.51,4.45,3.64,6.83,3.31,7.11,4.01,15.51,2.19,23.06-.04.16-.29.15-.3-.03-.65-10.21-3.1-19.7-7.67-28.79-4.64-9.27-6-20.06-4.32-30.22.03-.17.31-.16.3.03h0Z"/><path class="cls-1" d="M465.62,253.41c1.73,1.65,3.14,3.68,4.08,5.91.48,1.12,1.14,2.26,1.09,3.52-.03,1.24-.29,2.51-1.14,3.66-.06.08-.18.1-.26.04-.45-.57-.73-1.17-.98-1.71-.82-1.53-.84-3.11-1.01-4.8-.2-1.08-.47-2.16-.8-3.23-.31-1.09-.76-2.14-1.23-3.21-.07-.14.13-.29.24-.17h0Z"/><path class="cls-1" d="M468.61,247.4c5.61,5.08,10.24,15.36,5.03,22.14-.09.11-.28.06-.29-.08-.84-5.8.23-11.34-2.19-16.78-.69-1.78-1.66-3.47-2.78-5.08-.1-.13.1-.32.22-.2h0Z"/><path class="cls-1" d="M508.65,237.48c1.36,5.48,3.08,10.86,5.15,16.1,2.33,5.21,4.61,10.18,5.84,15.86.04.14-.16.26-.26.14-4.14-4.2-6.45-9.6-7.84-15.22-1.62-5.49-2.68-11.14-3.17-16.83-.02-.17.25-.23.3-.05h0Z"/><path class="cls-1" d="M531.61,234.6c-1.58,2.54-2.69,5.32-3.27,8.21-.31,3-.53,5.81-1.7,8.67-.04.12-.22.15-.3.04-2.03-2.84-1.73-6.4-.31-9.39,1.12-2.97,2.99-5.65,5.34-7.73.12-.11.32.05.23.19h0Z"/><path class="cls-1" d="M555.49,263.65c-4.2.31-8.24,1.52-11.86,3.62-1.76,1.03-3.21,2.45-4.87,3.61-1.66,1.17-3.25,2.44-5.14,3.71-.11.08-.29-.03-.25-.17,1.75-6.92,9.16-10.09,15.6-11.07,2.19-.26,4.39-.31,6.53,0,.17.02.17.29-.01.3h0Z"/><path class="cls-1" d="M599.52,262.35c4.03-.04,8.1.72,11.87,2.24,2.92,1.02,5.76,2.53,7.62,5.09.64.82,1.21,1.7,1.6,2.71.05.13-.08.27-.21.21-3.82-1.56-6.7-3.67-10.04-5.85-3.38-1.89-7.05-3.27-10.87-4.11-.17-.03-.15-.3.03-.3h0Z"/><path class="cls-1" d="M380.61,312.4c2.15,1.86,4.39,3.59,6.71,5.22,2.54,1.44,4.83,3.1,6.26,5.75.06.11-.02.26-.15.26-3.15-.02-5.73-1.85-7.65-4.18-2.06-2.07-3.87-4.38-5.38-6.86-.09-.14.1-.31.23-.19h0Z"/><path class="cls-1" d="M406.52,337.35c9.43.56,18.92-.14,28.1-2.29,9.18-2.35,17.81-5.61,26.82-8.69.15-.06.28.16.14.26-11.43,9.15-26.55,11.72-40.82,12.07-4.79.01-9.57-.3-14.27-1.05-.17-.02-.16-.31.03-.3h0Z"/><path class="cls-1" d="M471.57,274.37c2.67.9,5.2,2.25,7.45,3.98,1.13.86,2.42,1.64,3.18,2.88.77,1.22,1.37,2.58,1.43,4.19,0,.1-.07.18-.17.18-.76-.29-1.39-.76-1.98-1.16-2.82-1.93-4.13-4.92-6.91-7.17-.98-.94-2.05-1.78-3.14-2.63-.13-.1-.02-.32.14-.27h0Z"/><path class="cls-1" d="M486.62,308.41c2.36,2.49,4.12,5.59,5.07,8.92,1.24,3.35,1.27,7.24-1.04,10.2-.08.11-.26.07-.29-.06-.91-3.41-.87-6.28-1.01-9.65-.42-3.21-1.41-6.34-2.96-9.24-.08-.15.13-.3.24-.18h0Z"/><path class="cls-1" d="M491.64,291.44c4.14,7.62,6.58,16.15,7.29,24.82,1,8.71-.51,17.87-5.29,25.3-.08.14-.32.05-.28-.11,2.44-12.48,4.64-25.09,1.75-37.66-.84-4.16-2.13-8.25-3.75-12.22-.07-.16.19-.3.27-.13h0Z"/><path class="cls-1" d="M520.64,295.55c-1.76,6.44-3.36,12.98-4.55,19.54-.82,6.59.42,12.77,1.54,19.35.03.15-.18.25-.27.12-5.86-7.87-5.3-16.04-2.19-24.85,1.48-4.83,3.19-9.62,5.19-14.26.07-.16.34-.08.28.1h0Z"/><path class="cls-1" d="M542.58,326.38c7.7,4.64,16.27,7.79,25.15,9.01,6.65.78,13.28.6,19.95.38,0,0,6.78-.41,6.78-.41.16-.02.23.23.07.29-12.83,5.82-27.81,3.34-40.34-2.09-4.17-1.9-8.15-4.2-11.78-6.94-.14-.1,0-.35.17-.25h0Z"/><path class="cls-1" d="M619.64,314.56c-.81,3.25-2.34,6.34-4.46,8.97-1.96,2.88-4.95,5.14-8.62,5.11-.13,0-.22-.16-.13-.27,1.96-2.68,4.42-4.5,6.99-6.47,2.35-2.14,4.35-4.66,5.94-7.45.08-.15.32-.05.28.11h0Z"/><path class="cls-1" d="M457.63,398.58c-3.96,7.48-5.72,15.82-5.13,24.21.17,8.54,3.77,15.59,10.86,20.38,4.38,3.06,9.64,4.95,15.15,6.18.16.02.15.29-.02.3-2.86.23-5.77-.03-8.6-.69-12.8-2.79-19.75-13.36-19.34-26.13-.19-8.54,2.22-17.25,6.82-24.41.1-.15.35-.02.26.15h0Z"/><path class="cls-1" d="M551.63,395.43c4.54,7.56,8.55,15.45,11.62,23.75,3.74,8.85-.3,18.86-6.89,25.2-4.41,4.25-9.99,7.15-15.82,8.26-.08.02-.16-.04-.18-.12,3.69-2.26,7.63-4.29,10.84-7.29,3.18-2.75,5.82-6.13,8.09-9.63,3.14-4.66,3.97-10.5,2.1-15.82-2.62-8.31-6.12-16.39-10.03-24.21-.09-.15.17-.31.26-.15h0Z"/><path class="cls-1" d="M499.39,457.6c-4.4-4.77-8.31-10.04-11.63-15.66-1.67-2.79-3.09-5.75-5.1-8.05-2.02-2.28-4.69-4.05-7.53-5.09-3.48-1.29-7.43-1.22-10.85.11-.93.45-1.56.81-1.12,1.64,3.89,5.66,10.23,9.29,16.4,12.8.15.08.06.33-.11.28-6.43-1.63-12.57-4.65-17.34-9.43-1.47-1.39-3.11-4.03-1.67-6.11,1.41-1.96,3.29-2.28,5.29-2.73,6.91-1.23,14.07,1.9,18.41,7.27,2.14,2.71,3.39,5.75,4.92,8.57,2.93,5.73,6.53,11.12,10.55,16.19.11.14-.1.34-.23.2h0Z"/><path class="cls-1" d="M508.39,458.4c4.35-5.51,8.56-11.12,12.49-16.92,1.98-2.87,3.88-5.87,6.2-8.62,3.49-4.08,8.41-8.31,14.21-8.24,4.27.36,3.81,5.66,2.61,8.5-.96,2.76-3.23,5.08-5.54,6.63-6.03,3.79-12.33,6.89-18.78,9.88-.15.07-.3-.16-.15-.26,4.19-3.26,8.52-6.2,12.92-9.12,4.03-2.58,8.59-5.51,9.37-10.45.17-.92.26-1.75-.16-2.31-1.4-.68-3.34.08-5.03.69-3.03,1.25-5.68,3.46-7.98,5.98-2.32,2.52-4.32,5.39-6.44,8.21-4.28,5.59-8.75,11.03-13.47,16.23-.11.14-.35-.05-.23-.19h0Z"/><path class="cls-1" d="M473.54,416.36c3.62.57,7.18,1.61,10.54,3.09,2.61,1,5.16,2.29,6.92,4.54.61.72,1.17,1.49,1.59,2.4.06.12-.06.27-.19.23-3.59-.93-6.51-2.9-9.44-5.04-3.03-1.88-6.2-3.53-9.5-4.93-.16-.06-.09-.32.08-.29h0Z"/><path class="cls-1" d="M515.39,429.4c4.01-5.95,12.53-12.73,20.11-10.05.13.04.14.24.02.3-.93.49-1.82.85-2.7,1.21-4.26,1.8-8.88,2.45-12.73,5.23-1.59,1-3.06,2.2-4.47,3.51-.12.12-.33-.05-.23-.19h0Z"/><path class="cls-1" d="M316.65,309.51c.02,25.39,2.95,51.94,16.76,73.8,1.93,3.09,4,6.11,6.2,9.09.11.13-.09.33-.22.2-11.72-10.01-18.16-23.79-20.76-38.83-2.71-14.62-3.14-29.5-2.28-44.28,0-.18.31-.18.3.01h0Z"/><path class="cls-1" d="M323.65,374.47c2.88,13.54,5.85,27.07,8.66,40.63,5.02,27.21,9.22,54.62,15.82,81.5,2.43,10.11,5.43,19.98,9.13,29.69,2.16,6.53,4.63,12.94,9.02,18.29,6.65,7.89,15.19,13.93,23.36,20.19,5.55,4.13,11.11,8.25,16.78,12.18,11.39,7.69,22.95,15.49,35.19,21.73,12.29,5.84,25.58,10.47,39.26,11.08,6.85.14,13.82-.5,20.71-.48,6.95-.07,13.91.15,20.84.55,6.93.37,13.81,1.07,20.5.23,6.66-.88,13.35-2.8,19.46-5.61,12.8-5.64,20.81-17.28,30.19-27.2,4.6-5.17,10.1-9.63,15.11-14.37,5-4.73,9.9-9.62,14.73-14.54,10.88-10.88,20.72-22.99,26.76-37.22,3.08-7.98,4.16-16.46,4.1-25.01.18-13.92,2.9-27.6,4.06-41.4,1.48-24.14,4.27-48.38,8.02-72.25.02-.19.33-.15.3.04-3.12,23.95-5.27,48.21-6.41,72.35-.89,13.8-3.41,27.47-3.49,41.28.16,8.74-.9,17.71-4.01,25.96-5.99,14.66-16.05,27.3-27.13,38.38-4.85,4.97-9.74,9.88-14.79,14.67-5.03,4.78-10.37,9-15.02,14.19-9.47,10.01-18.09,22.07-31.24,27.68-6.48,2.91-13.29,4.82-20.34,5.71-7.1.83-14.1.04-20.97-.36-6.89-.45-13.77-.71-20.67-.69-6.96-.06-13.81.55-20.8.36-14.02-.7-27.55-5.48-40.1-11.52-12.39-6.4-23.84-14.22-35.33-22.07-5.68-3.99-11.23-8.15-16.76-12.31-8.22-6.37-16.83-12.53-23.54-20.6-4.46-5.46-7.03-12.19-9.15-18.79-3.62-9.72-6.61-19.77-8.95-29.88-6.42-26.97-10.42-54.4-15.24-81.67-2.7-13.57-5.58-27.11-8.36-40.67-.02-.08.03-.17.12-.18.08-.02.16.04.18.12h0Z"/><path class="cls-1" d="M667.65,309.5c.26,20.34,2.06,44.35-1.08,64.4-2.51,12.89-10.13,24.33-18.95,33.7-.11.13-.34-.04-.24-.19,6.9-10.75,13.36-21.69,16.28-34.11,3.99-19.55,2.86-43.76,3.69-63.8,0-.18.3-.19.3,0h0Z"/><path class="cls-1" d="M459.55,494.36c3.81,1.2,7.96,1.48,11.72.28,3.69-1.46,7.64-2.85,11.6-3.63,3.11-.88,6.63-.06,9.2,1.84,5.57,3.42,12.25,7.15,18.85,4.78,1.92-.6,3.17-1.42,4.78-2.78,3.77-2.74,8.38-3.31,12.65-2.7,4.22.57,7.4,3.35,11.44,4,3.75.69,7.77.19,11.67-.79.08-.02.16.03.18.11.02.07-.02.14-.08.17-3.64,1.75-7.76,2.96-12.04,2.61-4.08-.13-7.69-2.77-11.57-3.12-2.72-.28-5.59-.05-8.17.91-1.96.65-3.09,1.99-5.01,2.98-1.02.51-2.04.89-3.09,1.17-3.14.83-6.55.97-9.65-.09-5-1.57-9.12-4.66-13.4-7.18-1.73-.78-3.58-.8-5.47-.44-4.03.59-7.74,1.71-11.62,3.02-4.03,1.07-8.28.53-12.07-.86-.17-.06-.09-.35.1-.28h0Z"/><path class="cls-1" d="M427.45,496.36c3.18-1.18,6.48-2.03,9.78-2.77,3.34-.95,7.16-.46,9.93,1.74,5.22,4.21,11.15,7.53,17.65,9.2,7.21,1.91,14.96,1.22,22.44.75,2.69-.23,5.54.5,7.88,1.89,1.59.92,2.87,2.12,4.17,2.92,4.21,2.61,9.04.95,13.32-1.12,1.6-.73,2.56-1.72,4.12-2.72,5.6-3.18,12.42-3.04,18.45-1.37,5.21,1.41,11.29,2.44,16.26-.18,1.47-.72,2.99-1.54,4.54-2.28,7.71-3.64,15.98-6.28,24.49-7.06.17-.02.23.26.05.3-6.57,1.48-12.94,3.65-18.98,6.62-4.78,2.01-8.85,5.63-14.01,6.66-3.65.62-7.02.19-10.64-.43-4.67-1.3-9.55-2.32-14.37-1.34-1.51.3-3.07.8-4.32,1.51-1.3.81-2.9,2.11-4.42,2.72-4.8,2.25-10.91,3.85-15.69.63-1.55-1.02-2.74-2.19-4.07-2.99-2.8-1.83-5.82-1.92-9.18-1.62-6.81.22-13.78.5-20.42-1.43-4.97-1.46-9.59-3.8-13.8-6.76-2.71-1.94-4.98-4.64-8.35-5.25-1.6-.33-3.26-.12-4.91.2-3.31.64-6.6,1.39-9.81,2.46-.17.07-.28-.23-.1-.28h0Z"/><path class="cls-1" d="M458.63,515.42c3.96,6.26,10.4,11.26,17.87,11.99,3.14.35,8.02.23,11.26.34,11.29.37,22.63.16,33.88-.32,5.24-.26,11.34.28,15.02-4.2,1.2-1.34,2.05-3.01,2.7-4.77.03-.08.12-.12.19-.09.07.02.11.09.1.16-.21,1.91-.85,3.8-1.89,5.51-2.09,3.51-6.33,5.43-10.26,5.78-13.23,1.84-26.58.6-39.82-.12-3.35-.26-8.06-.3-11.39-.81-7.76-1.18-14.19-6.66-17.92-13.32-.09-.16.16-.32.26-.16h0Z"/><path class="cls-1" d="M398.61,466.4c7.09,6.05,8.57,14.87,8.33,23.75-.03,1.75-.38,3.5-.3,4.74.26,3.15,2.57,5.42,4.93,7.48.12.09.02.31-.13.27-1.71-.38-3.38-1.15-4.81-2.37-3.3-2.7-3.44-6.47-2.65-10.37.68-4.83.74-10-.69-14.67-.95-3.14-2.73-6.03-4.9-8.62-.12-.13.08-.34.22-.21h0Z"/><path class="cls-1" d="M598.65,475.52c-.41,5.1-.13,10.24,1.11,15.18.69,2.61,1.72,5.4.88,8.23-.81,2.85-3.23,5.14-6.07,5.7-.14.03-.25-.15-.15-.26,3.8-3.72,3.83-8.02,2.98-13.21-.79-5.23-.36-10.6.95-15.69.04-.17.31-.13.3.05h0Z"/><path class="cls-1" d="M503.62,471.41c3.7,3.84,6.23,9.12,6.27,14.54,0,2.21.14,4.17-.55,6.33-1.52,3.86-6.43,4.61-9.85,3.37-.14-.05-.13-.26.01-.3,1.3-.39,2.53-.77,3.63-1.25,2.05-.82,3.43-2.26,3.72-4.5.94-3.68.96-7.43-.16-11.08-.7-2.43-1.87-4.76-3.31-6.93-.1-.14.11-.32.23-.19h0Z"/><path class="cls-1" d="M421.6,540.39c4.84,4.06,9.01,8.98,12.13,14.59,3.15,5.56,4.21,12.11,5.58,18.21,2.11,9.07,7.42,16.79,13.61,23.56,2.11,2.28,4.37,4.44,6.66,6.64.06.06.06.15,0,.21-5.68-2.66-10.8-7.2-14.91-12.19-4.09-5.04-6.59-11.37-7.72-17.71-1.11-6.2-1.74-12.37-4.58-18.03-2.66-5.59-6.51-10.66-10.99-15.04-.14-.12.06-.35.2-.22h0Z"/><path class="cls-1" d="M584.65,552.49c.93,8.07.84,16.28-.56,24.32-1.48,8.13-2.53,17.57-11.51,20.82-.15.05-.28-.14-.16-.25,2.91-2.85,5.24-5.94,6.05-9.58.52-1.87,1.02-3.8,1.6-5.71,1.85-5.73,3.12-11.53,3.69-17.54.44-3.98.59-8,.59-12.03,0-.18.28-.21.3-.02h0Z"/><path class="cls-1" d="M506.55,586.36c2.92.62,5.73,1.85,8.17,3.6,2.7,1.6,4.85,4.13,4.9,7.47,0,.13-.15.22-.26.15-2.61-1.44-4.37-3.52-6.19-5.78-1.98-2.01-4.24-3.75-6.73-5.15-.15-.08-.06-.32.11-.28h0Z"/><path class="cls-1" d="M692.41,275.38c11.93-9.91,30.32-7.55,39.81,4.66,3.51,4.4,5.61,9.69,7.14,15.04,7.55,23.49-1.68,48.07-10.23,69.94-8.01,19.09-16.45,37.86-26.85,55.76-7.78,14.25-20,27.17-35.95,14.47-2.38-1.85-4.4-4.13-5.95-6.66-.04-.07-.02-.16.05-.21.07-.04.15-.02.2.04,3.43,4.66,8.5,8.23,14.01,9.81,5.72,1.65,11.16-.68,15.23-4.81,2.23-1.92,3.97-4,5.54-6.47,3.14-4.94,5.87-10.19,8.61-15.42,0,0,4.21-7.88,4.21-7.88l-.1.18c9.36-19.86,19.64-39.36,26.43-60.27,5.11-15.89,8.43-31.7,3.38-48.09-2.96-12.78-11.23-23.45-24.84-25.41-7.18-1.03-14.73,1.07-20.5,5.55-.14.13-.34-.13-.19-.24h0Z"/><path class="cls-1" d="M680.39,319.39c9.04-8.77,16.42-19.1,25.71-27.61,4.64-3.84,10.39-10.41,17.02-7.29,6.78,3.44,7.97,10.23,7.23,17.07-.22,4.18-.4,8.36-.53,12.54-.16,4.19-.15,8.34-.41,12.61-.2,4.34-1.67,8.67-3.44,12.47-6,13.41-13.03,26.27-19.14,39.56-.85,1.9-1.64,3.75-2.23,5.69-1.12,2.96-1.19,6.41-2.87,9.21-2.86,4.72-7.81,7.88-12.79,9.67-3.97,1.46-8.22,2.38-12.43,2.34-.08,0-.15-.07-.15-.15,0-.08.06-.14.13-.15,2.08-.22,4.13-.6,6.12-1.15,2-.54,3.92-1.32,5.81-2.16,4.69-2.04,8.93-5.06,11.33-9.52,1.39-2.72,1.32-5.9,2.31-8.84.54-2.09,1.37-4.13,2.17-6.07,2.45-5.83,5.21-11.49,8-17.16,3.84-7.45,7.65-14.89,11.29-22.4,1.83-3.73,3.19-7.47,3.49-11.53.52-8.27.73-16.77,1.38-25.07.78-6.18,0-12.34-5.97-15.49-3.79-2.03-7.6.49-10.68,2.8-4.98,3.76-9.57,8.05-13.8,12.65-5.55,6.27-11.32,12.39-17.34,18.21-.12.14-.36-.09-.21-.21h0Z"/><path class="cls-1" d="M704.41,324.62c-10.57-7.77-20.58,2.48-22.9,12.89-.84,3.48-.15,6.81,1.28,10.01,1.29,3.12,2.7,6.65,4.92,9.1.86.92,1.45,2.3,1.31,3.61-.43,3.54-3.7,5.98-6.89,6.49-3.09.65-7.05,1.57-9.3,3.6-2.08,2.54.17,6.59,1.78,9.08.11.13-.11.32-.23.2-2.01-1.94-3.95-4.42-4.13-7.4-.25-3.42,3.15-5.44,5.85-6.56,2.24-1.23,5.29-1.55,7.48-2.61,1.35-.95,3.33-2.81,1.91-4.42-2.49-3.13-3.63-6.64-4.95-10.24-.62-1.81-1.24-3.57-1.45-5.52-.57-8.86,6.12-19.83,15.13-21.57,3.74-.75,7.5.87,10.38,3.12.15.12-.02.35-.18.24h0Z"/><path class="cls-1" d="M705.63,351.58c-4.39,7.91-7.8,16.29-9.78,25.11-.8,3.32-1.57,7.32-4.2,9.96-4.48,4.58-11.74,4.26-17.18,1.99-.15-.06-.11-.3.06-.29,10.32.37,16.32-1.59,19.01-12.3,2.57-8.77,6.61-17.16,11.84-24.64.1-.15.35,0,.25.16h0Z"/><path class="cls-1" d="M397.65,575.48c2.63,16.57,4.28,33.72,3.19,50.43-12.89,10.67-27.22,19.72-42.61,26.35-25.73,10.65-52.89,17.28-78.67,27.78-31.05,12.1-61.27,26.18-90.28,42.58-9.67,5.46-19.23,11.14-28.69,17-.15.1-.32-.15-.17-.25,36.39-25.78,76.29-46.56,118.15-61.92,25.93-10.1,53.17-16.48,78.98-26.8,15.34-6.41,29.66-15.18,42.62-25.57.19-14.43-.06-33.7-2.81-49.57-.04-.18.28-.24.3-.05h0Z"/><path class="cls-1" d="M606.65,571.5l.35,49-.22-.41c20.22,13.36,41.5,25.08,63.59,35.03,22.13,10.07,45.3,17.02,68.32,24.8,11.53,4,22.9,8.78,33.32,15.22,5.17,3.12,10.06,6.69,15.43,9.46,5.28,2.79,10.78,5.18,16.48,6.99,2.85.92,5.74,1.7,8.65,2.3,5.92,1.28,12.12,1.38,17.98,3.21,14.9,4.39,26.65,15.68,35.07,28.33.11.15-.14.33-.24.17-3.68-4.81-7.69-9.37-12.18-13.38-4.51-3.97-9.44-7.48-14.86-9.98-2.7-1.26-5.51-2.27-8.38-3.03-5.83-1.6-11.92-1.62-17.89-2.78-9.08-1.73-17.88-4.84-26.06-9.14-5.44-2.79-10.44-6.32-15.64-9.48-5.06-3.23-10.43-5.93-15.86-8.51-16.55-7.51-34.03-12.51-51.13-18.73-17.17-6.15-34-13.32-50.18-21.72-16.27-8.23-31.9-17.7-46.98-27.92-.14-.09-.21-.25-.21-.41l.35-49c0-.19.31-.19.3,0h0Z"/><path class="cls-1" d="M401.63,627.43c14.74,24.99,34.24,33.24,61.15,39.98,19.16,5.07,39.22,11.66,58.94,6.22,9.73-2.39,18.53-7.24,27.22-12.18,13.12-7.3,26.43-14.66,36.82-25.68,3.48-3.59,6.71-7.44,9.63-11.53,2.97-4.05,5.59-8.36,7.98-12.81.07-.16.35-.04.27.13-6.05,14.02-15.55,26.6-27.45,36.2-7.95,6.42-16.92,11.33-25.72,16.39-8.86,5-18.09,9.83-28.12,12.08-20.28,5.17-40.67-1.7-60.03-7.17-14.55-4.13-29.59-8.55-41.52-18.31-7.94-6.36-14.51-14.34-19.43-23.18-.1-.16.17-.32.26-.15h0Z"/><path class="cls-1" d="M391.63,636.57c-12.26,23.73-24.99,47.26-39.23,69.87-2.64,4.07-6.09,9.45-8.35,13.63-5.17,9.3-9.68,19.1-16.31,27.67-1.59,2.13-3.48,4.05-5.05,6.2-3.16,4.24-5.3,9.11-7.36,13.98,0,0-1.54,3.69-1.54,3.69-1.38,3.23-3.4,7.37.46,9.62,7.09,3.51,15.47,1.64,23.29,2.6,13.53,1.3,26.03,6.19,39.14,8.76,7.66,1.41,16.09,2.91,23.61,4.83,3.93,1.13,8.77,1.63,11.52,5.13,4.46,6.62-2.89,13.95-6.56,19.1-8.19,10.55-17.53,20.34-26.46,30.19,0,0-2.67,2.99-2.67,2.99-4.39,4.84-7.72,10.58-10.99,16.28-1.28,2.32-2.54,4.65-3.72,7.02-2.41,4.5-4.4,8.96.08,12.61,6.12,5.03,15.1,4.69,21.86,8.58,14.3,7.62,26.59,18.34,38.62,29,15.78,14.44,31.39,29.57,45.63,45.28-.06.06-.15.05-.21,0-15.13-14.77-30.86-29.93-46.81-43.71-12.13-10.23-24.34-20.79-38.48-28.06-7.29-3.89-16.03-3.24-22.59-8.79-3.95-3.19-4.76-8.1-2.62-12.57,1.66-3.77,3.56-7.27,5.51-10.87,3.34-5.85,6.85-11.75,11.46-16.8,0,0,2.69-2.98,2.69-2.98,8.94-9.77,18.42-19.48,26.58-29.83,2.86-4.02,9.92-10.95,6.68-15.94-2.41-2.86-6.52-3.22-10.11-4.31-7.43-1.95-15.86-3.53-23.45-4.97-13.06-2.65-25.75-7.67-38.9-9.01-7.85-1.02-16.59.86-24.04-3.03-2.8-1.61-3.74-5.06-2.58-7.99.77-2.35,2.15-5.22,3.07-7.49,2.13-4.94,4.37-9.92,7.65-14.25,1.6-2.16,3.49-4.06,5.11-6.19,8.21-10.42,13.37-23.03,20.58-34.24,4.28-6.4,8.87-13.74,12.87-20.29,11.21-17.86,21.45-38.3,31.63-55.73h0Z"/><path class="cls-1" d="M609.62,629.41l60.7,81.18c5.14,6.8,9.13,14.32,13.21,21.7,4.58,8.3,9.21,16.59,15.59,23.55,2.77,2.72,4.35,5.64,2.33,9.38-2.28,3.93-6.15,6.21-9.83,8.51-7.31,4.28-14.62,8.47-21.84,12.84-9.2,5.26-17.21,12.1-26.12,17.82-5.05,3.36-11.07,6.12-14.54,11.27-.8,1.24-2.14,3.28-1.43,4.55.89,1.14,3.37,1.15,4.9,1.26,4.12.13,8.34-.11,12.59-.22,9.57-.15,19.25.34,28.67,2.44,6.42,1.47,12.32,3.57,10.54,11.54-7.38,22.54-23.66,40.9-41.09,56.4-7,6.28-14.96,11.31-21.84,17.71-26.61,24.58-42.6,58.25-53.82,92.21-.02.08-.11.12-.19.1-.08-.02-.12-.11-.1-.19,2.14-7.27,4.61-15.07,7.23-22.11,9.95-26.64,24.14-52.35,45.04-72,5.55-5.31,11.28-9.3,16.91-13.92,11.26-9.34,21.65-19.89,30.37-31.64,5.58-7.54,10.35-15.68,13.67-24.42,1.03-2.28,1.99-5.68.36-7.65-1.83-2.13-5.12-2.52-7.73-3.35-9.12-2.11-18.58-2.67-27.99-2.61-4.2.07-8.42.28-12.74.11-2.89-.06-7.56-.74-7.35-4.59,1.33-7.71,9.92-12.15,16.01-15.87,5.8-3.71,11.31-7.59,16.87-11.72,10.52-7.15,21.76-13.12,32.7-19.52,4.12-2.62,12.48-7.18,9.15-12.91-.48-.82-1.36-1.59-1.95-2.31-6.45-7.13-11.15-15.63-15.64-23.97-4.02-7.43-7.91-14.92-12.92-21.67.22-.05-60.96-82.24-59.72-81.91h0Z"/><path class="cls-1" d="M401.65,632.47c3.42,15.46,9.29,30.42,17.92,43.62,4.19,6.65,9.99,12.12,14.8,18.53,2.44,3.16,4.76,6.4,6.99,9.7,3.9,5.7,9.09,14.15,12.81,20.08,2.04,2.94,3.92,6.6,6.98,8.46,3.74,1.7,4.78-10.32,5.97-12.79,1.81-5.81,4.64-11.3,8.03-16.31,4.52-6.64,10.02-12.55,15.98-17.88,2.99-2.64,6.09-5.14,9.28-7.51.14-.11.33.11.19.23-14.21,13.07-28.15,28.55-31.97,48.02-.77,3.96-3.19,11.45-8.75,8.91-3.82-2.23-5.67-6.23-7.98-9.72,0,0-6.07-10.24-6.07-10.24-4.07-6.77-8.3-13.45-13-19.79-4.66-6.41-10.37-12.08-14.51-18.9-8.41-13.6-13.91-28.8-16.95-44.37-.04-.18.26-.25.29-.06h0Z"/><path class="cls-1" d="M513.59,678.38c12.9,10,24.76,21.4,34.83,34.27,2.57,3.17,5.16,6.32,7.58,9.65,1.44,1.97,3.04,4.36,3.68,6.89,1.63,4.47,7.27-2.51,8.77-4.28,10.36-13.5,15.89-30.65,22.14-46.35,4.13-11.36,10.78-22.13,13.25-33.87.79-3.93,1.28-7.96,1.5-11.99.28-4.04.23-8.1,0-12.17,0-.08.06-.15.14-.16.08,0,.14.05.16.13.68,4.03.98,8.13,1.06,12.23.03,4.11-.24,8.22-.81,12.32-1.08,8.22-4.75,15.82-7.83,23.37-3.2,7.47-5.99,15.06-9.11,22.64-5.25,12.19-10.46,24.78-18.89,35.21-2.59,3.21-9.37,10.22-12.13,3.6-.63-2.47-1.82-4.39-3.35-6.57-2.31-3.3-4.84-6.5-7.34-9.7-4.99-6.44-10.03-12.78-15.81-18.54-5.7-5.79-11.76-11.25-18.04-16.43-.14-.11.04-.36.19-.23h0Z"/><path class="cls-1" d="M469.62,728.42c5.93,8.56,13.17,16.12,21.36,22.46,5.96,5.26,13.27,11.67,21.69,10.85,4.6-.73,6.89-5.25,9.1-8.91,7.11-11.88,14.91-24.91,22.59-36.38.09-.15.34-.01.26.15-3.89,8.74-8.29,17.2-12.93,25.54-3.64,6.25-7.12,12.62-11.75,18.24-9.37,9.67-22.69-1.1-29.96-8.25-8.06-6.7-15.03-14.72-20.62-23.53-.1-.15.14-.33.25-.17h0Z"/><path class="cls-1" d="M457.63,734.43c8.34,15.13,14.99,31.2,19.79,47.82,5.03,16.57,7.88,33.9,7.23,51.24,0,.17-.28.19-.3.02-2.62-17.03-5.21-33.9-9.24-50.63-2.08-8.32-4.68-16.51-7.63-24.58-2.94-8.07-6.32-16-10.11-23.73-.09-.16.18-.31.27-.14h0Z"/><path class="cls-1" d="M578.64,714.55c-6.19,20.28-11.51,40.82-15.91,61.55-4.18,20.8-7.76,41.62-12.09,62.42-.03.17-.32.14-.3-.04,1.07-21.27,4.87-42.28,10.04-62.91,4.94-20.67,10.95-41.07,17.96-61.12.05-.17.35-.09.28.09h0Z"/><path class="cls-1" d="M501.64,764.55c-9.31,31.26-16.07,63.71-16.05,96.43.19,13.99,2.67,27.8,5.15,41.57,4.88,26.77,10.59,56.18,14.9,82.92.04.18-.25.25-.29.06-1.16-4.54-2.22-9.1-3.34-13.65-1.89-8.24-4.5-19.31-6.26-27.41-2.83-13.21-5.7-28.08-7.94-41.41-2.22-13.89-4.42-27.93-4.4-42.07.21-23.52,4.34-46.81,10.1-69.53,2.26-9.1,4.88-18.11,7.84-27,.05-.18.35-.09.29.09h0Z"/><path class="cls-1" d="M524.64,756.46c2.8,8.34,6.63,20.27,9.48,28.43,3.24,9.48,7.06,18.7,10,28.29,4.37,14.46,5.11,29.7,5.53,44.71.77,25.04-1.71,50.1-4.05,74.9-1.34,8.33-6.39,92.95-5.02,44.71.31-14.64.82-30.48,2.03-44.96,2.5-29.89,6.35-59.57,4.43-89.55-.49-9.93-1.62-19.82-4.37-29.4-1.31-4.78-2.98-9.49-4.6-14.21-3.25-9.31-6.44-19.05-9.29-28.51,0,0-4.43-14.32-4.43-14.32-.02-.08.02-.16.1-.19.08-.02.16.02.19.1h0Z"/><path class="cls-2" d="M424.5,295.5c-.22.92,2.11,1.47,3,4,.14.4.78,2.2,0,3-1.25,1.29-4.94-1.24-6,0-.47.55-.15,1.53,0,2,.74,2.29,3.47,3.94,6,4,3.49.09,5.98-2.83,7-5,.29-.61,2-4.46,0-7-1.27-1.62-3.37-1.83-5-2-1.92-.2-4.77.02-5,1Z"/><path class="cls-2" d="M575.5,297.5c-.22.92,2.11,1.47,3,4,.14.4.78,2.2,0,3-1.25,1.29-4.94-1.24-6,0-.47.55-.15,1.53,0,2,.74,2.29,3.47,3.94,6,4,3.49.09,5.98-2.83,7-5,.29-.61,2-4.46,0-7-1.27-1.62-3.37-1.83-5-2-1.92-.2-4.77.02-5,1Z"/></svg>