<?xml version="1.0" encoding="UTF-8"?><svg id="_Шар_1" xmlns="http://www.w3.org/2000/svg" width="1024" height="1024" viewBox="0 0 1024 1024"><defs><style>.cls-1{fill:#b52126;stroke-width:0px;}</style></defs><path class="cls-1" d="M792.37,462.08c-49.23,10.22-105.8,36.38-156.81,26.49-41.56-8.06-28.33-44.75-12.9-70.72,13.44-22.59,26.34-44.69,43.03-65.18,1.68-2.08,1.24-6.52-2.16-4.25-13.89,9.27-27.32,19.17-41.33,28.24-8.28,5.37-8.39,5.15-17.68,11.52-24.99,17.12-32.09-9.58-33.92-26.15-.32-2.69-3.3-1.41-4.61-.43-31.38,24.73-45.66.68-42.18-29.3,1.52-13.22,5.16-23.07,1.52-36.23-.52-1.88-2.05-1.78-3.57-1.01-8.68,4.48-12.85,12.52-16.95,21.15-4.56,9.61-11.84,31.59-22.29,46.91-10.76,6.85-20.53,14.25-35.12,12.29-11.03-1.45-25.57-23.32-30.97-30.44-11.4-15.02-18.89-32.62-30.03-47.8-1.77-2.44-4.92.88-5.56,2.7-3.35,9.56.89,19.78,3.01,29.4,3.75,16.86,8.14,28.97-.98,47.08-9.58,18.98-28.59,16.49-44.18,8.69-2.5-1.23-5.3,3.64-4.54,5.63-1.88,26.55-11.67,36.42-29.44,29.63-6.21-3.21-12.36-6.48-18.49-9.82-5.15-2.79-12.64-5.14-18.58-5.25-7.92-.12-20.42,1.37-23.67,10.64-3.55,10.06,3.22,16.33,10.27,22.54,24.33,21.46,68.88,71.24,25.93,100.14-1.22.8-3.64,3.5-2.43,5.17,9.62,13.18,24.76,26.19,6.25,43.81-2.07,1.96-1.91,3.7-1.57,6.4.45,3.67,10.17,4.83,12.39,5.34,4.63,1.12,9.5,1.41,14.2,2.46,24.07,5.39-4.22,39.28-9.92,46.55-5.14,6.56-28.65,25.55-26.93,36.41,2.5,15.73,30.69,5.99,39.96,2.9,10.61-3.55,20.53-9.81,30.29-15.14,8.43-4.57,17.47-8.23,26.29-12.01,15.56-6.7,17.68,2.16,24.27,11.93,5.52,8.19,13.22,48.74,25.68,50.58,11.83,1.76,20.6-17.68,24.23-25.68,2.7-5.94,8.6-26.12,17.06-36.92,8.41-.2,16.46-1.17,24.19-2.79,10.85,5.41,20.27,14.71,29.01,22.2,2.27,1.93,5.54-2.4,5.75-4.3,2.12-20.2,18.23-3.87,24.86,2.7,11.36,11.2,19.2,25.27,26.64,39.18,10.09,18.86,17.54,44.14,32.98,59.05,2.21,2.14,5.43-2.58,5.71-4.3,7.19-42.01-69.54-166.66,5.27-179.01,2.63-.43,5.03-3.46,4.21-6.12-5.12-16.33,1.05-32.51,19.96-35.77,3.8-.65,7.25.06,10.44-2.78,1.83-1.61,3.12-4.81,3.41-7.09,1.74-12.8,7.77-17.34,19.13-22.54,38.51-17.5,93.5-16.75,121.56-51.69.87-1.06,2.43-5.67-.66-5.03Z"/><path class="cls-1" d="M521.63,254.16c22.07,10.12,25.16-75.22,23.13-85.4-.38-1.89-2.28-1.94-3.7-1.03-11.21,7.26-13.44,22.76-16.29,34.85-1.14,4.89-3.04,10.89-4.01,16.87-.54,2.28-.96,4.58-1.13,6.84-.39,5.5-5.27,24.53,2.01,27.87Z"/><path class="cls-1" d="M565.55,302c4.1,1.24,10.76-7.03,12.64-9.79,4.05-6.03,7.51-12.17,9.91-19.03,2.97-8.47,3.39-28.88-11.8-23.44-6.79,2.43-9.01,10.25-10.96,16.35-1.41,4.37-2.94,9.65-2.5,14.49-3.16,9.74-4.23,19.33,2.71,21.42Z"/><path class="cls-1" d="M749.53,241.4c5.58-4.73,32.2-26.91,25.35-36.18-.39-.52-.83-.92-1.3-1.21-6.67-4.01-20.99,14.76-24.54,18.98-2.7,3.21-9.55,10.4-10.38,14.56-1.65,8.37,5.41,8.51,10.87,3.85Z"/><path class="cls-1" d="M290.29,739.92c-4.92-2.96-15.45,10.86-18.07,13.95-1.98,2.37-7,7.63-7.62,10.69-1.21,6.16,3.99,6.27,7.99,2.85,4.1-3.49,23.68-19.79,18.65-26.61-.3-.38-.61-.68-.95-.88Z"/><path class="cls-1" d="M774.42,291.98c-2.7,2.59-5.32,5.25-7.83,8.02-1.96,2.19-4.68,5.22-2.14,7.99,2.17,2.34,6.47-1.38,8-2.72,1.53-1.36,2.94-2.91,4.33-4.44.55-.63,1.11-1.27,1.66-1.89.19-.21,1.4-1.55.66-.77.79-.82,2.03-2.43,1.33-3.65-.93-1.62-2.29-2.05-3.76-1.78.07-.29.07-.63-.08-.92-.43-.86-1.67-.34-2.18.17Z"/><path class="cls-1" d="M243.59,673.8c-1.16,1.28-1.84,3.04-1.46,4.55-.03.11-.06.22-.1.33-.32-.9-1.68-1.1-2.9.22-2.52,2.65-3.87,6.17-4.25,9.74-.13,1.07.7,2.01,1.83,1.47,3.09-1.48,5.14-4.23,7.02-7.04.64-.94,1.27-2.01,1.86-3.13.96-.78,1.59-2.25,1.37-3.23.26-.85.45-1.71.51-2.58.18-2.85-2.7-1.57-3.88-.32Z"/><path class="cls-1" d="M394.54,785.05c-.34.23-.67.57-1.03.92-.48.1-.95.39-1.32.91-5.38,7.65-7.47,16.33-7.65,25.63-.05,2.55-.24,13.77,5.11,11.84,5.58-1.97,7.98-11.2,9.24-16.15,2.01-7.9,3.94-16.56-1.68-23.36-.59-.71-2.09-.22-2.67.21Z"/><path class="cls-1" d="M636.72,821.53c-1.99-.82-3.96,2.1-4.62,3.5-.71,1.62-1.25,3.6-1.23,5.43-1.72,2.05-2.5,5.39-2.45,7.8.08,6.29,2.07,15.21,8.36,18.13,6.77,3.15,7.96-10.95,7.96-14.37.03-6.21-1.27-17.71-8.02-20.49Z"/><path class="cls-1" d="M646.07,669.07c-1.8-.22-3.22,1.32-3.73,2.97-.74.64-1.28,1.5-1.26,2.46.07,4.38,4.11,10.37,8.36,5.78,3.28-3.56,1.88-10.57-3.38-11.21Z"/><path class="cls-1" d="M690.02,635.66c.03-.2.11-.43.11-.61-.02-2.47-1.18-5.57-3.68-6.43-1.92-.66-4.1,2.2-4.25,3.81-.31,3.4.77,7.13,4.44,8.02,1.73.42,4.19-2.19,3.7-3.92-.08-.28-.21-.55-.32-.85Z"/><path class="cls-1" d="M245.52,529.73c1.11-2.8,1.58-6.57.14-9.36-1.21-2.38-4.47-3.77-6.91-2.59-.64.32-1.24.75-1.79,1.21-.88.16-1.73.44-2.57.99-3.08,2.09-5.19,6.52-4.47,10.18.68,3.3,3.62,8.16,7.56,7.83,3.93-.36,6.74-5.02,8.03-8.24Z"/><path class="cls-1" d="M269.7,372.03c5.02,2.14,11.95-7.63,6.64-10.76-1.29-.79-2.83.02-3.92,1.25.39-.79.96-1.51,1.48-2.08,2.05-2.22.11-5.47-2.35-2.95-1.97,1.97-3.59,4.34-4.33,7.08-.73,2.68-.38,6.22,2.48,7.46Z"/></svg>