<svg width="227" height="1154" viewBox="0 0 227 1154" fill="none" xmlns="http://www.w3.org/2000/svg">
<path d="M22.4434 1145.53C37.3706 1106.66 76.6837 1084.79 120.135 1077.7C164.325 1070.45 202.752 1048.73 202.752 1003.36C202.752 953.844 157.97 936.848 111.859 928.572C100.922 926.65 90.4285 923.399 80.5263 918.965C27.025 895.318 27.764 826.89 81.8564 804.277C93.8277 799.252 106.686 795.705 120.135 793.488C164.325 786.247 202.752 764.521 202.752 719.148C202.752 669.637 157.97 652.641 111.859 644.365C100.183 642.296 88.8028 638.601 78.3094 633.871C27.3206 610.224 28.0596 543.717 79.6395 521.105C92.202 515.636 105.947 511.794 119.987 509.429C164.178 502.187 202.604 480.462 202.604 435.089C202.604 385.578 157.822 368.582 111.711 360.305C100.035 358.236 88.655 354.541 78.1616 349.812C27.1728 326.165 27.9118 259.658 79.4918 237.046C92.0543 231.577 105.799 227.735 119.839 225.37C164.03 218.128 202.456 196.402 202.456 151.03C202.456 101.519 157.675 84.5225 111.563 76.2461C71.0675 68.8564 35.5971 44.6183 22.0001 8.99999" stroke="#22177A" stroke-width="46.7751" stroke-miterlimit="10"/>
<path d="M38.4051 1118.93C57.766 1096.47 87.916 1083.02 120.135 1077.7C164.325 1070.45 202.752 1048.73 202.752 1003.36C202.752 953.844 157.97 936.848 111.859 928.572C100.922 926.65 90.4284 923.399 80.5263 918.965C27.025 895.318 27.7639 826.89 81.8564 804.277C93.8277 799.252 106.686 795.705 120.135 793.488C164.325 786.247 202.752 764.521 202.752 719.148C202.752 669.637 157.97 652.641 111.859 644.365C100.183 642.296 88.8027 638.601 78.3094 633.871C27.3206 610.224 28.0595 543.717 79.6395 521.105C92.202 515.636 105.947 511.794 119.987 509.429C164.177 502.187 202.604 480.462 202.604 435.089C202.604 385.578 157.822 368.582 111.711 360.305C100.035 358.236 88.6549 354.541 78.1616 349.812C27.1728 326.165 27.9118 259.658 79.4918 237.045C92.0542 231.577 105.799 227.734 119.839 225.37C164.03 218.128 202.456 196.402 202.456 151.03C202.456 101.519 157.675 84.5225 111.563 76.246C78.605 70.1865 48.8985 52.8946 31.6066 27.4741" stroke="white" stroke-width="1.8867" stroke-linecap="round" stroke-linejoin="round" stroke-dasharray="14.07 14.07"/>
</svg>
